<svg id="whatsapp_black_24dp" xmlns="http://www.w3.org/2000/svg" width="36" height="34" viewBox="0 0 36 34">
  <g id="Group_1085" data-name="Group 1085">
    <rect id="Rectangle_595" data-name="Rectangle 595" width="36" height="34" fill="none"/>
  </g>
  <g id="Group_1088" data-name="Group 1088" transform="translate(2.05 2)">
    <g id="Group_1087" data-name="Group 1087">
      <g id="Group_1086" data-name="Group 1086">
        <path id="Path_897" data-name="Path 897" d="M28.96,6.423A15.869,15.869,0,0,0,17.863,2C9.221,2,2.177,8.764,2.177,17.063a14.646,14.646,0,0,0,2.089,7.524L2.05,32.4l8.31-2.1a16.206,16.206,0,0,0,7.5,1.839h0c8.643,0,15.687-6.764,15.687-15.063A14.673,14.673,0,0,0,28.96,6.423Zm-11.1,23.165h0a13.492,13.492,0,0,1-6.648-1.748l-.475-.274L5.8,28.813l1.314-4.621L6.8,23.721A12.2,12.2,0,0,1,4.8,17.063,12.814,12.814,0,0,1,17.848,4.538,13.179,13.179,0,0,1,27.06,8.217a12.193,12.193,0,0,1,3.815,8.862C30.907,23.979,25.05,29.588,17.863,29.588Zm7.155-9.363c-.4-.182-2.327-1.094-2.675-1.231-.364-.122-.617-.182-.886.182-.269.38-1.013,1.231-1.235,1.474-.222.258-.459.289-.855.091a10.648,10.648,0,0,1-3.15-1.87,11.582,11.582,0,0,1-2.184-2.614c-.222-.38-.032-.578.174-.775.174-.167.4-.441.586-.654a2.617,2.617,0,0,0,.4-.623.673.673,0,0,0-.032-.654c-.095-.182-.886-2.037-1.2-2.8-.317-.73-.649-.638-.886-.654h-.76a1.449,1.449,0,0,0-1.045.471A4.217,4.217,0,0,0,9.9,13.719a7.175,7.175,0,0,0,1.6,3.891A17.118,17.118,0,0,0,18.2,23.3a19.676,19.676,0,0,0,2.232.79,5.639,5.639,0,0,0,2.469.152,3.987,3.987,0,0,0,2.643-1.794,2.861,2.861,0,0,0,.222-1.794C25.651,20.483,25.414,20.407,25.018,20.225Z" transform="translate(-2.05 -2)"/>
      </g>
    </g>
  </g>
</svg>
